<svg width="22" height="22" viewBox="0 0 22 22" fill="none" xmlns="http://www.w3.org/2000/svg">
<path d="M15.72 13.8365H14.73L14.38 13.4969C15.61 12.0629 16.35 10.2013 16.35 8.1761C16.35 3.6604 12.6901 0 8.18005 0C3.66005 0 0 3.6604 0 8.1761C0 12.6918 3.66005 16.3522 8.18005 16.3522C10.2001 16.3522 12.06 15.6101 13.5 14.3774L13.84 14.7296V15.7233L20.13 22L22 20.1258L15.72 13.8365ZM8.18005 13.8365C5.04005 13.8365 2.52002 11.3082 2.52002 8.1761C2.52002 5.044 5.04005 2.51572 8.18005 2.51572C11.3101 2.51572 13.84 5.044 13.84 8.1761C13.84 11.3082 11.3101 13.8365 8.18005 13.8365Z" fill="#9D9D9D"/>
</svg>
