<svg width="22" height="22" viewBox="0 0 22 22" fill="none" xmlns="http://www.w3.org/2000/svg">
<path d="M22 0H0V22H22V0Z" fill="white"/>
<path d="M22 0H0V6.84444H22V0Z" fill="#9D9D9D"/>
<path d="M22 7.33331H0V22H22V7.33331Z" fill="#9D9D9D"/>
<path d="M5.62988 14.2648C4.98988 14.0799 4.51985 13.8533 4.21985 13.5851C3.92985 13.3142 3.78992 12.9809 3.78992 12.5851C3.78992 12.1372 3.95982 11.7674 4.31982 11.4757C4.67982 11.1814 5.14985 11.0343 5.71985 11.0343C6.10985 11.0343 6.45989 11.1098 6.75989 11.2609C7.06989 11.4119 7.30985 11.6202 7.46985 11.8859C7.63985 12.1515 7.72986 12.4419 7.72986 12.757H6.96985C6.96985 12.4132 6.85989 12.1437 6.63989 11.9484C6.42989 11.7504 6.11985 11.6515 5.71985 11.6515C5.34985 11.6515 5.05985 11.7335 4.84985 11.8976C4.64985 12.059 4.53992 12.2843 4.53992 12.5734C4.53992 12.8051 4.63984 13.0017 4.83984 13.1632C5.02984 13.3221 5.36984 13.4679 5.83984 13.6007C6.30984 13.7335 6.67983 13.8807 6.94983 14.0421C7.21983 14.201 7.41992 14.3872 7.53992 14.6007C7.66992 14.8142 7.73987 15.0656 7.73987 15.3546C7.73987 15.8156 7.55983 16.1853 7.19983 16.464C6.83983 16.74 6.35989 16.8781 5.75989 16.8781C5.36989 16.8781 4.99991 16.8038 4.65991 16.6554C4.32991 16.5044 4.05988 16.2986 3.87988 16.0382C3.69988 15.7778 3.60986 15.4822 3.60986 15.1515H4.35986C4.35986 15.4952 4.48987 15.7674 4.73987 15.9679C4.98987 16.1658 5.32989 16.2648 5.75989 16.2648C6.14989 16.2648 6.45992 16.184 6.66992 16.0226C6.87992 15.8611 6.97986 15.6411 6.97986 15.3624C6.97986 15.0838 6.88982 14.8689 6.68982 14.7179C6.49982 14.5642 6.13988 14.4132 5.62988 14.2648ZM12.8999 16.0538C12.7099 16.3299 12.4398 16.5369 12.0898 16.6749C11.7498 16.8103 11.3499 16.8781 10.8899 16.8781C10.4299 16.8781 10.0199 16.77 9.65991 16.5538C9.29991 16.3351 9.01982 16.0252 8.81982 15.6241C8.62982 15.2231 8.5199 14.7583 8.5199 14.2296V13.7335C8.5199 12.8767 8.71987 12.2127 9.11987 11.7413C9.51987 11.27 10.0799 11.0343 10.7999 11.0343C11.3999 11.0343 11.8799 11.1866 12.2399 11.4913C12.5999 11.7934 12.8199 12.2231 12.8999 12.7804H12.1499C12.0099 12.0278 11.5599 11.6515 10.8099 11.6515C10.3099 11.6515 9.91991 11.8286 9.65991 12.1827C9.40991 12.5343 9.2799 13.0447 9.2699 13.714V14.1788C9.2699 14.8169 9.41984 15.3247 9.70984 15.7023C9.99984 16.0773 10.3999 16.2648 10.8899 16.2648C11.1799 16.2648 11.4199 16.2335 11.6299 16.171C11.8399 16.1085 12.0199 16.0031 12.1599 15.8546V14.5773H10.8398V13.9679H12.8999V16.0538ZM18.3398 14.9952C18.2698 15.5968 18.0499 16.0616 17.6699 16.3898C17.2999 16.7153 16.7999 16.8781 16.1799 16.8781C15.5099 16.8781 14.9698 16.6372 14.5698 16.1554C14.1598 15.6736 13.9598 15.0291 13.9598 14.2218V13.6749C13.9598 13.1463 14.0499 12.6814 14.2399 12.2804C14.4299 11.8794 14.6999 11.5721 15.0499 11.3585C15.3899 11.1424 15.7899 11.0343 16.2499 11.0343C16.8499 11.0343 17.3398 11.2036 17.6998 11.5421C18.0698 11.8781 18.2798 12.3442 18.3398 12.9406H17.5898C17.5198 12.4874 17.3799 12.1593 17.1599 11.9562C16.9399 11.7531 16.6399 11.6515 16.2499 11.6515C15.7699 11.6515 15.3899 11.8286 15.1199 12.1827C14.8499 12.5369 14.7098 13.0408 14.7098 13.6945V14.2452C14.7098 14.8624 14.8399 15.3533 15.0999 15.7179C15.3599 16.0825 15.7199 16.2648 16.1799 16.2648C16.5999 16.2648 16.9199 16.171 17.1399 15.9835C17.3599 15.7934 17.5098 15.464 17.5898 14.9952H18.3398Z" fill="white"/>
<path d="M4.88013 3.90441C4.48013 3.78891 4.19012 3.64721 4.00012 3.47961C3.82012 3.31031 3.7301 3.10201 3.7301 2.85462C3.7301 2.57467 3.84018 2.34355 4.06018 2.16126C4.29018 1.97734 4.58006 1.88538 4.94006 1.88538C5.18006 1.88538 5.40009 1.93258 5.59009 2.02698C5.78009 2.12138 5.93015 2.25159 6.03015 2.4176C6.14015 2.58362 6.19006 2.7651 6.19006 2.96204H5.72009C5.72009 2.74719 5.65014 2.57874 5.52014 2.45667C5.38014 2.33297 5.19006 2.27112 4.94006 2.27112C4.71006 2.27112 4.53015 2.32239 4.40015 2.42493C4.27015 2.52584 4.20007 2.66663 4.20007 2.84729C4.20007 2.99215 4.26014 3.11501 4.39014 3.21591C4.51014 3.31521 4.72013 3.40641 5.01013 3.48941C5.31013 3.57241 5.54008 3.66431 5.71008 3.76531C5.88008 3.86451 6.00008 3.98091 6.08008 4.11441C6.16008 4.24781 6.20007 4.40491 6.20007 4.58561C6.20007 4.87361 6.09011 5.10481 5.86011 5.27891C5.64011 5.45141 5.34008 5.53771 4.96008 5.53771C4.72008 5.53771 4.49015 5.49131 4.28015 5.39861C4.07015 5.30421 3.90016 5.17561 3.79016 5.01281C3.67016 4.85001 3.62012 4.66531 3.62012 4.45861H4.09009C4.09009 4.67351 4.17008 4.84351 4.33008 4.96891C4.49008 5.09261 4.70008 5.15441 4.96008 5.15441C5.21008 5.15441 5.40015 5.10401 5.53015 5.00301C5.66015 4.90211 5.7301 4.76461 5.7301 4.59041C5.7301 4.41631 5.67017 4.28201 5.55017 4.18761C5.42017 4.09161 5.20013 3.99721 4.88013 3.90441ZM7.31018 5.48891H6.84009V1.93421H7.31018V5.48891ZM10.9001 5.48891H10.4302L8.64014 2.74964V5.48891H8.17017V1.93421H8.64014L10.4302 4.68571V1.93421H10.9001V5.48891ZM14.3501 4.36101C14.3001 4.73691 14.1602 5.02751 13.9302 5.23251C13.6902 5.43601 13.3801 5.53771 13.0001 5.53771C12.5801 5.53771 12.2401 5.38721 11.9901 5.08611C11.7301 4.78491 11.6101 4.38211 11.6101 3.87761V3.53581C11.6101 3.20541 11.6702 2.91484 11.7802 2.66419C11.9002 2.41354 12.0702 2.22148 12.2902 2.08802C12.5002 1.95292 12.7502 1.88538 13.0402 1.88538C13.4202 1.88538 13.7201 1.99117 13.9501 2.20276C14.1801 2.41272 14.3101 2.70406 14.3501 3.07681H13.8701C13.8301 2.79358 13.7401 2.5885 13.6101 2.46155C13.4701 2.3346 13.2802 2.27112 13.0402 2.27112C12.7402 2.27112 12.5001 2.3818 12.3301 2.60315C12.1601 2.82451 12.0801 3.13941 12.0801 3.54801V3.89221C12.0801 4.27791 12.1601 4.58471 12.3201 4.81261C12.4801 5.04051 12.7101 5.15441 13.0001 5.15441C13.2601 5.15441 13.4601 5.09581 13.6001 4.97861C13.7401 4.85981 13.8301 4.65391 13.8701 4.36101H14.3501ZM17.7201 3.82631C17.7201 4.17461 17.6602 4.47901 17.5502 4.73941C17.4302 4.99821 17.2602 5.19591 17.0502 5.33261C16.8302 5.46941 16.5802 5.53771 16.3002 5.53771C16.0202 5.53771 15.7702 5.46941 15.5502 5.33261C15.3302 5.19431 15.1702 4.99821 15.0502 4.74431C14.9302 4.48871 14.8701 4.19331 14.8601 3.85801V3.60171C14.8601 3.25991 14.9202 2.95797 15.0402 2.69593C15.1602 2.43388 15.3302 2.23369 15.5402 2.09534C15.7602 1.95537 16.0102 1.88538 16.2902 1.88538C16.5802 1.88538 16.8302 1.95455 17.0402 2.0929C17.2602 2.22962 17.4302 2.429 17.5502 2.69104C17.6602 2.95146 17.7201 3.25501 17.7201 3.60171V3.82631ZM17.2601 3.59681C17.2601 3.17521 17.1701 2.85218 17.0001 2.62757C16.8301 2.40133 16.6002 2.28821 16.2902 2.28821C15.9902 2.28821 15.7601 2.40133 15.5901 2.62757C15.4201 2.85218 15.3301 3.16471 15.3301 3.56511V3.82631C15.3301 4.23481 15.4101 4.55631 15.5901 4.79061C15.7601 5.02341 15.9902 5.13981 16.3002 5.13981C16.6002 5.13981 16.8301 5.02991 17.0001 4.81021C17.1601 4.58881 17.2501 4.27221 17.2601 3.86051V3.59681Z" fill="white"/>
</svg>
