<svg width="21" height="22" viewBox="0 0 21 22" fill="none" xmlns="http://www.w3.org/2000/svg">
<path d="M18.5299 12.0771C18.5699 11.7333 18.5999 11.3781 18.5999 11C18.5999 10.6333 18.5699 10.2667 18.5199 9.9229L20.7999 8.1125C20.9999 7.9521 21.0599 7.6427 20.9299 7.4135L18.7799 3.6094C18.6399 3.3573 18.3599 3.2771 18.1099 3.3573L15.4299 4.4573C14.8599 4.0219 14.2699 3.6552 13.5999 3.3802L13.1998 0.46979C13.1498 0.19479 12.9299 0 12.6599 0H8.33986C8.06986 0 7.85995 0.19479 7.80995 0.46979L7.40992 3.3802C6.73992 3.6552 6.13986 4.0333 5.58986 4.4573L2.89991 3.3573C2.64991 3.2656 2.36988 3.3573 2.23988 3.6094L0.0898559 7.4135C-0.0501441 7.6542 -0.000139207 7.9521 0.219861 8.1125L2.5099 9.9229C2.4499 10.2667 2.39991 10.6448 2.39991 11C2.39991 11.3552 2.42987 11.7333 2.47987 12.0771L0.199841 13.8875C-0.000158742 14.0479 -0.0601636 14.3573 0.0698364 14.5865L2.21986 18.3906C2.35986 18.6427 2.6399 18.7229 2.8899 18.6427L5.56984 17.5427C6.13984 17.9781 6.72991 18.3448 7.39991 18.6198L7.79994 21.5302C7.85994 21.8052 8.06986 22 8.33986 22H12.6599C12.9299 22 13.1498 21.8052 13.1898 21.5302L13.5899 18.6198C14.2599 18.3448 14.8599 17.9781 15.4099 17.5427L18.0999 18.6427C18.3499 18.7344 18.6299 18.6427 18.7599 18.3906L20.9199 14.5865C21.0599 14.3344 20.9999 14.0479 20.7899 13.8875L18.5299 12.0771ZM10.4999 15.125C8.26989 15.125 6.44984 13.2687 6.44984 11C6.44984 8.7312 8.26989 6.875 10.4999 6.875C12.7299 6.875 14.5499 8.7312 14.5499 11C14.5499 13.2687 12.7299 15.125 10.4999 15.125Z" fill="#9D9D9D"/>
</svg>
