<svg width="28" height="22" viewBox="0 0 28 22" fill="none" xmlns="http://www.w3.org/2000/svg">
<path d="M10.1 14.6667C6.72998 14.6667 0 16.3044 0 19.5555V22H20.21V19.5555C20.21 16.3044 13.48 14.6667 10.1 14.6667Z" fill="#9D9D9D"/>
<path d="M26.6501 4.6933C26.6601 4.5589 26.67 4.4244 26.67 4.2778C26.67 4.1311 26.66 3.9967 26.64 3.8622L27.57 3.1533C27.66 3.0922 27.67 2.97 27.62 2.88444L26.74 1.40555C26.69 1.30778 26.56 1.28333 26.47 1.30778L25.39 1.73555C25.16 1.56444 24.91 1.43 24.64 1.32L24.48 0.18333C24.45 0.0733301 24.36 0 24.25 0H22.48C22.37 0 22.2801 0.0733301 22.2701 0.18333L22.1 1.32C21.84 1.43 21.58 1.57666 21.36 1.73555L20.26 1.30778C20.16 1.27111 20.04 1.30778 19.99 1.40555L19.11 2.88444C19.06 2.98222 19.07 3.0922 19.16 3.1533L20.0901 3.8622C20.0701 3.9967 20.06 4.1433 20.06 4.2778C20.06 4.4122 20.0701 4.5589 20.0901 4.6933L19.16 5.4022C19.07 5.4633 19.06 5.5855 19.11 5.6711L19.99 7.15C20.04 7.2478 20.17 7.2722 20.26 7.2478L21.36 6.82C21.58 6.9911 21.84 7.1255 22.1 7.2355L22.2701 8.3722C22.2801 8.4822 22.37 8.5555 22.48 8.5555H24.25C24.36 8.5555 24.4501 8.4822 24.4601 8.3722L24.63 7.2355C24.89 7.1255 25.15 6.9789 25.37 6.82L26.47 7.2478C26.57 7.2844 26.69 7.2478 26.74 7.15L27.62 5.6711C27.67 5.5733 27.66 5.4633 27.57 5.4022L26.6501 4.6933ZM23.36 5.8055C22.49 5.8055 21.79 5.1211 21.79 4.2778C21.79 3.4344 22.49 2.75 23.36 2.75C24.24 2.75 24.94 3.4344 24.94 4.2778C24.94 5.1211 24.24 5.8055 23.36 5.8055Z" fill="#9D9D9D"/>
<path d="M23.9001 10.6089L23.26 9.5456C23.23 9.4722 23.14 9.4478 23.07 9.4722L22.29 9.7778C22.13 9.6556 21.95 9.5578 21.76 9.4844L21.6501 8.6778C21.6201 8.6044 21.55 8.5556 21.47 8.5556H20.21C20.13 8.5556 20.07 8.6044 20.06 8.69L19.94 9.4967C19.75 9.57 19.58 9.68 19.41 9.79L18.63 9.4844C18.55 9.46 18.48 9.4844 18.44 9.5578L17.81 10.6211C17.77 10.6944 17.78 10.7678 17.85 10.8167L18.51 11.3178C18.5 11.4156 18.49 11.5133 18.49 11.6111C18.49 11.7089 18.5 11.8189 18.51 11.9044L17.85 12.4056C17.78 12.4544 17.77 12.54 17.81 12.6011L18.44 13.6644C18.48 13.7378 18.57 13.7622 18.63 13.7378L19.41 13.4322C19.58 13.5544 19.75 13.6522 19.94 13.7255L20.06 14.5322C20.07 14.6178 20.13 14.6667 20.21 14.6667H21.47C21.55 14.6667 21.62 14.6178 21.62 14.5322L21.74 13.7255C21.92 13.6522 22.1 13.5422 22.27 13.4322L23.05 13.7378C23.12 13.7622 23.2 13.7378 23.24 13.6644L23.87 12.6011C23.91 12.5278 23.9 12.4544 23.83 12.4056L23.18 11.9044C23.19 11.8067 23.2 11.7089 23.2 11.6111C23.2 11.5133 23.19 11.4033 23.18 11.3178L23.8401 10.8167C23.9101 10.7678 23.9201 10.6822 23.9001 10.6089ZM20.8401 12.6256C20.2601 12.6256 19.79 12.1611 19.79 11.6111C19.79 11.0489 20.2701 10.5967 20.8401 10.5967C21.4101 10.5967 21.89 11.0611 21.89 11.6111C21.89 12.1733 21.4201 12.6256 20.8401 12.6256Z" fill="#9D9D9D"/>
<path d="M4.72302 7.33331H15.5C15.84 7.33331 16.12 7.06441 16.12 6.73441V6.71001C16.12 6.38001 15.84 6.11111 15.5 6.11111H15.16C15.16 4.30221 14.13 2.75001 12.63 1.89445V3.05561C12.63 3.39781 12.35 3.66671 12 3.66671C11.64 3.66671 11.37 3.39781 11.37 3.05561V1.39334C10.96 1.29556 10.55 1.22223 10.1 1.22223C9.65998 1.22223 9.24003 1.29556 8.84003 1.39334V3.05561C8.84003 3.39781 8.56002 3.66671 8.21002 3.66671C7.86002 3.66671 7.58002 3.39781 7.58002 3.05561V1.89445C6.07002 2.75001 5.04999 4.30221 5.04999 6.11111H4.72302C4.38202 6.11111 4.10498 6.38001 4.10498 6.71001V6.74671C4.10498 7.06441 4.38202 7.33331 4.72302 7.33331Z" fill="#9D9D9D"/>
<path d="M10.1 12.2222C12.45 12.2222 14.41 10.6578 14.98 8.5556H5.22998C5.79998 10.6578 7.74998 12.2222 10.1 12.2222Z" fill="#9D9D9D"/>
</svg>
