<svg width="23" height="22" viewBox="0 0 23 22" fill="none" xmlns="http://www.w3.org/2000/svg">
<path d="M16.0299 12.1249L13.5698 14.589L20.5399 21.5542L22.9999 19.0901L16.0299 12.1249Z" fill="#9D9D9D"/>
<path d="M17.89 8.5814C20.13 8.5814 21.95 6.7576 21.95 4.5157C21.95 3.842 21.77 3.2147 21.48 2.65717L18.34 5.7935L16.61 4.0627L19.75 0.92638C19.19 0.63598 18.56 0.45012 17.89 0.45012C15.65 0.45012 13.8199 2.27384 13.8199 4.5157C13.8199 4.992 13.9199 5.445 14.0699 5.8632L11.92 8.0122L9.84998 5.9445L10.6801 5.1198L9.04004 3.4819L11.5 1.01931C10.14 -0.33977 7.92995 -0.33977 6.56995 1.01931L2.45996 5.1314L4.09998 6.7692H0.819946L0 7.594L4.10999 11.7061L4.93994 10.8813V7.594L6.56995 9.2319L7.40002 8.4071L9.46997 10.4748L0.859985 19.0823L3.31995 21.5449L16.54 8.3374C16.96 8.4884 17.41 8.5814 17.89 8.5814Z" fill="#9D9D9D"/>
</svg>
