<svg width="20" height="22" viewBox="0 0 20 22" fill="none" xmlns="http://www.w3.org/2000/svg">
<path d="M7.5 4.093C8.6 4.093 9.5 3.1721 9.5 2.04651C9.5 0.92093 8.6 0 7.5 0C6.4 0 5.5 0.92093 5.5 2.04651C5.5 3.1721 6.4 4.093 7.5 4.093ZM3.75 7.5721L1 22H3.09998L4.84998 13.814L7 15.8605V22H9V14.2744L6.94995 12.1767L7.55005 9.107C8.85005 10.7442 10.8 11.7674 13 11.7674V9.7209C11.15 9.7209 9.55002 8.6977 8.65002 7.214L7.69995 5.5767C7.34995 4.9628 6.7 4.6047 6 4.6047C5.75 4.6047 5.5 4.6558 5.25 4.7581L0 6.9581V11.7674H2V8.3395L3.75 7.5721ZM11 0.51163V7.6744H14.75V22H16.25V7.6744H20V0.51163H11ZM16.01 6.6512V4.8605H12.5V3.3256H16.01V1.53488L18.5 4.093L16.01 6.6512Z" fill="#9D9D9D"/>
</svg>
