<svg width="28" height="22" viewBox="0 0 28 22" fill="none" xmlns="http://www.w3.org/2000/svg">
<path d="M20.3 11.6999C22.23 11.6999 23.79 10.1319 23.79 8.19991C22.02 8.19991 22.23 8.19991 20.3 8.19991C18.37 8.19991 19.25 8.19991 16.8 8.19991C16.8 10.1319 18.37 11.6999 20.3 11.6999ZM9.80005 10.2999C12.12 10.2999 13.99 8.42391 13.99 6.09991C12.6 6.09991 12.12 6.09991 9.80005 6.09991C7.48005 6.09991 7.51998 6.09991 5.59998 6.09991C5.59998 8.42391 7.48005 10.2999 9.80005 10.2999ZM20.3 14.4999C17.74 14.4999 12.6 15.7879 12.6 18.3499V21.4999H28V18.3499C28 15.7879 22.86 14.4999 20.3 14.4999ZM9.80005 13.0999C6.54005 13.0999 0 14.7379 0 17.9999V21.4999H9.80005V18.3499C9.80005 17.1599 10.26 15.0739 13.12 13.4919C11.9 13.2399 10.72 13.0999 9.80005 13.0999Z" fill="#9D9D9D"/>
<path d="M5.47998 5.1602H14.15C14.43 5.1602 14.65 4.9577 14.65 4.7092V4.69079C14.65 4.44219 14.43 4.2397 14.15 4.2397H13.88C13.88 2.87728 13.06 1.70818 11.85 1.0638V1.93832C11.85 2.19607 11.62 2.39859 11.34 2.39859C11.05 2.39859 10.83 2.19607 10.83 1.93832V0.686365C10.51 0.612725 10.1701 0.557495 9.81006 0.557495C9.46006 0.557495 9.12005 0.612725 8.80005 0.686365V1.93832C8.80005 2.19607 8.57004 2.39859 8.29004 2.39859C8.00004 2.39859 7.78003 2.19607 7.78003 1.93832V1.0638C6.57003 1.70818 5.75 2.87728 5.75 4.2397H5.47998C5.20998 4.2397 4.98999 4.44219 4.98999 4.69079V4.7184C4.98999 4.9577 5.20998 5.1602 5.47998 5.1602Z" fill="#9D9D9D"/>
<path d="M16.9 7.46159H23.91C24.14 7.46159 24.3199 7.29959 24.3199 7.10079V7.08599C24.3199 6.88719 24.14 6.72519 23.91 6.72519H23.6899C23.6899 5.63519 23.03 4.69999 22.05 4.18449V4.88409C22.05 5.09029 21.87 5.25229 21.64 5.25229C21.41 5.25229 21.22 5.09029 21.22 4.88409V3.88249C20.96 3.82359 20.69 3.77939 20.4 3.77939C20.11 3.77939 19.84 3.82359 19.58 3.88249V4.88409C19.58 5.09029 19.4 5.25229 19.17 5.25229C18.94 5.25229 18.76 5.09029 18.76 4.88409V4.18449C17.78 4.69999 17.11 5.63519 17.11 6.72519H16.9C16.67 6.72519 16.49 6.88719 16.49 7.08599V7.10809C16.49 7.29959 16.67 7.46159 16.9 7.46159Z" fill="#9D9D9D"/>
</svg>
