<svg width="36" height="36" viewBox="0 0 36 36" fill="none" xmlns="http://www.w3.org/2000/svg">
<path d="M19.7701 4.54401C20.2851 4.13801 21.122 4.138 21.636 4.556L23.874 6.37799H27.451C26.771 2.77399 22.861 0 18.164 0C13.044 0 8.86805 3.28699 8.77405 7.35699C9.93605 7.22299 15.2311 8.11901 19.7701 4.54401Z" fill="#5B7288"/>
<path d="M18.1671 16.816C23.3341 16.816 27.562 13.465 27.562 9.31601L27.5591 8.48099H23.3201C22.9661 8.48099 22.6281 8.36799 22.3801 8.16599L20.6391 6.74799C15.4551 10.173 9.96905 9.33599 8.77405 9.45999C8.86805 13.529 13.0451 16.816 18.1671 16.816Z" fill="#5B7288"/>
<path d="M27.6779 15.19C26.1579 16.754 24.047 17.935 21.614 18.517L2.69995 31.628H15.713L27.6779 15.19Z" fill="#5B7288"/>
<path d="M25.329 29.893C25.329 28.937 24.354 28.159 23.155 28.159H21.284L18.759 31.628H23.155C24.354 31.628 25.329 30.85 25.329 29.893Z" fill="#5B7288"/>
<path d="M8.25998 14.763H7.25699C4.89499 14.763 2.90099 16.112 2.51399 17.972C0.205992 29.579 -0.0900162 29.363 0.208984 30.569L17.073 18.879C13.394 18.615 10.231 17.035 8.25998 14.763Z" fill="#5B7288"/>
<path d="M35.991 34.729L33.861 18.22C33.677 16.744 32.476 15.539 30.842 15.027L22.815 26.056H23.155C25.806 26.056 27.963 27.778 27.963 29.893C27.963 32.009 25.806 33.73 23.155 33.73H5.72504L5.60204 34.718C5.52504 35.337 6.13403 35.874 6.91203 35.874L34.68 35.888C35.714 35.709 36.063 35.287 35.991 34.729Z" fill="#5B7288"/>
</svg>
