<svg width="36" height="37" viewBox="0 0 36 37" fill="none" xmlns="http://www.w3.org/2000/svg">
<path fill-rule="evenodd" clip-rule="evenodd" d="M11.333 28.798L16.9995 22.404C16.2628 22.317 15.7151 22.273 15.1106 22.273C10.0675 22.273 0 25.188 0 30.973V35.323H16.9995L11.333 28.798ZM15.1106 17.923C19.2849 17.923 22.6659 14.03 22.6659 9.22299C22.6659 4.41699 19.2849 0.52301 15.1106 0.52301C10.9363 0.52301 7.5553 4.41699 7.5553 9.22299C7.5553 14.03 10.9363 17.923 15.1106 17.923Z" fill="#5B7288"/>
<path fill-rule="evenodd" clip-rule="evenodd" d="M23.5536 36.411L16.9994 28.799L19.6437 25.732L23.5536 30.256L33.2433 19.011L35.8877 22.078L23.5536 36.411Z" fill="#5B7288"/>
</svg>
