<svg width="36" height="36" viewBox="0 0 36 36" fill="none" xmlns="http://www.w3.org/2000/svg">
<path d="M25.132 20.188L21.287 24.291L32.155 35.888L36 31.785L25.132 20.188Z" fill="#36A792"/>
<path d="M28.0251 14.288C31.5231 14.288 34.3681 11.251 34.3681 7.51903C34.3681 6.39703 34.0781 5.35303 33.6251 4.42403L28.7311 9.64601L26.0311 6.76402L30.9251 1.54201C30.0551 1.05901 29.0761 0.749008 28.0251 0.749008C24.5261 0.749008 21.6811 3.78603 21.6811 7.51903C21.6811 8.31203 21.8261 9.06601 22.0611 9.76201L18.7081 13.34L15.4821 9.89803L16.7691 8.524L14.2131 5.79701L18.0561 1.69701C15.9351 -0.565994 12.4911 -0.565994 10.3711 1.69701L3.95506 8.54402L6.51006 11.271H1.39906L0.112061 12.644L6.52806 19.491L7.81506 18.117V12.644L10.3711 15.371L11.6581 13.998L14.8841 17.44L1.45306 31.772L5.29607 35.872L25.9221 13.882C26.5751 14.133 27.2811 14.288 28.0251 14.288Z" fill="#36A792"/>
</svg>
