<svg width="45" height="45" viewBox="0 0 45 45" fill="none" xmlns="http://www.w3.org/2000/svg">
<path d="M22.5 44C34.3741 44 44 34.3741 44 22.5C44 10.6259 34.3741 1 22.5 1C10.6259 1 1 10.6259 1 22.5C1 34.3741 10.6259 44 22.5 44Z" fill="white" stroke="#1B344C" stroke-width="2"/>
<path d="M23.139 16.1111H21.222V23.7778L27.228 27.4833L28.25 25.95L23.139 22.8833V16.1111ZM22.5 11C16.111 11 11 16.1111 11 22.5C11 28.8889 16.111 34 22.5 34C28.889 34 34 28.8889 34 22.5C34 16.1111 28.889 11 22.5 11ZM22.5 31.4444C17.517 31.4444 13.556 27.4833 13.556 22.5C13.556 17.5167 17.517 13.5556 22.5 13.5556C27.483 13.5556 31.444 17.5167 31.444 22.5C31.444 27.4833 27.483 31.4444 22.5 31.4444Z" fill="#1B344C"/>
</svg>
