<svg width="36" height="36" viewBox="0 0 36 36" fill="none" xmlns="http://www.w3.org/2000/svg">
<path d="M9.869 0C7.252 0 4.74101 1.24701 2.89101 3.46701C1.04001 5.68701 0 8.69801 0 11.837C0 12.913 0.161004 13.989 0.395004 15.065H7.716L9.995 7.81201C10.533 6.09101 12.65 5.91901 13.332 7.81201L17.047 19.37L18.105 16.314C18.339 15.603 18.967 15.065 19.738 15.065H35.493C35.726 13.989 35.888 12.913 35.888 11.837C35.888 8.69801 34.848 5.68701 32.997 3.46701C31.146 1.24701 28.636 0 26.019 0C22.681 0 19.738 2.00201 17.944 5.03601C16.15 2.00201 13.207 0 9.869 0ZM1.79401 18.294C1.31801 18.294 0.862001 18.52 0.526001 18.924C0.189001 19.328 0 19.875 0 20.446C0 21.017 0.189001 21.564 0.526001 21.968C0.862001 22.371 1.31801 22.598 1.79401 22.598H6.173L16.15 34.435C17.944 36.372 17.944 36.372 19.738 34.435L29.715 22.598H34.093C34.569 22.598 35.026 22.371 35.362 21.968C35.699 21.564 35.888 21.017 35.888 20.446C35.888 19.875 35.699 19.328 35.362 18.924C35.026 18.52 34.569 18.294 34.093 18.294H20.456L18.787 23.244C18.07 25.417 16.006 25.116 15.342 23.308L11.664 11.837L9.94099 16.852C9.67199 17.67 9.062 18.294 8.254 18.294H1.79401Z" fill="#5B7288"/>
</svg>
