<svg width="36" height="36" viewBox="0 0 36 36" fill="none" xmlns="http://www.w3.org/2000/svg">
<path d="M31.9003 3.58899H23.5664C22.729 1.50699 20.5358 0 17.9439 0C15.352 0 13.1589 1.50699 12.3215 3.58899H3.9875C2.93 3.58899 1.9157 3.96701 1.1679 4.64001C0.4201 5.31301 0 6.22601 0 7.17801V32.299C0 33.251 0.4201 34.164 1.1679 34.837C1.9157 35.51 2.93 35.888 3.9875 35.888H31.9003C32.9579 35.888 33.9721 35.51 34.7199 34.837C35.4677 34.164 35.8879 33.251 35.8879 32.299V7.17801C35.8879 6.22601 35.4677 5.31301 34.7199 4.64001C33.9721 3.96701 32.9579 3.58899 31.9003 3.58899ZM17.9439 3.58899C18.4727 3.58899 18.9798 3.77801 19.3537 4.11401C19.7276 4.45101 19.9377 4.907 19.9377 5.383C19.9377 5.859 19.7276 6.31501 19.3537 6.65201C18.9798 6.98901 18.4727 7.17801 17.9439 7.17801C17.4151 7.17801 16.908 6.98901 16.5341 6.65201C16.1602 6.31501 15.9502 5.859 15.9502 5.383C15.9502 4.907 16.1602 4.45101 16.5341 4.11401C16.908 3.77801 17.4151 3.58899 17.9439 3.58899ZM3.9875 25.121H10.1882L13.1988 20.007L14.714 30.361L22.071 21.91L25.6997 25.121H31.9003V32.299H3.9875V25.121ZM31.9003 22.358H26.9757L21.7919 17.693L16.8274 23.417L14.9533 10.91L8.314 22.358H3.9875V7.17801H7.9751V8.97198H27.9128V7.17801H31.9003V8.97198V22.358Z" fill="#5B7288"/>
</svg>
