<svg width="36" height="36" viewBox="0 0 36 36" fill="none" xmlns="http://www.w3.org/2000/svg">
<path d="M15.512 23.991L12.783 21.472L15.512 18.935L18.223 21.472L20.933 18.935L18.223 16.417L20.933 13.898L23.663 16.417L26.373 13.898L20.933 8.84201L7.343 21.472L12.783 26.527L15.512 23.991ZM0 30.815L5.99699 25.259L1.922 21.472L20.933 3.78699L25.027 7.59201L27.718 5.05499L25.027 2.51901L27.718 0L35.888 7.59201L33.178 10.093L30.448 7.59201L27.718 10.093L31.813 13.898L12.783 31.565L8.70799 27.778L0 35.888V30.815Z" fill="#5B7288"/>
</svg>
