<svg width="36" height="37" viewBox="0 0 36 37" fill="none" xmlns="http://www.w3.org/2000/svg">
<path d="M31.9003 4.42999H23.5664C22.729 2.34799 20.5358 0.841003 17.9439 0.841003C15.352 0.841003 13.1589 2.34799 12.3215 4.42999H3.9875C2.93 4.42999 1.9157 4.80799 1.1679 5.48099C0.4201 6.15399 0 7.06701 0 8.01901V33.14C0 34.092 0.4201 35.005 1.1679 35.678C1.9157 36.351 2.93 36.729 3.9875 36.729H31.9003C32.9579 36.729 33.9721 36.351 34.7199 35.678C35.4677 35.005 35.8879 34.092 35.8879 33.14V8.01901C35.8879 7.06701 35.4677 6.15399 34.7199 5.48099C33.9721 4.80799 32.9579 4.42999 31.9003 4.42999ZM17.9439 4.42999C18.4727 4.42999 18.9798 4.61899 19.3537 4.95499C19.7276 5.29199 19.9377 5.748 19.9377 6.224C19.9377 6.7 19.7276 7.15701 19.3537 7.49301C18.9798 7.83001 18.4727 8.01901 17.9439 8.01901C17.4151 8.01901 16.908 7.83001 16.5341 7.49301C16.1602 7.15701 15.9502 6.7 15.9502 6.224C15.9502 5.748 16.1602 5.29199 16.5341 4.95499C16.908 4.61899 17.4151 4.42999 17.9439 4.42999ZM19.9377 20.579H25.919V24.168H19.9377V29.551H15.9502V24.168H9.9688V20.579H15.9502V15.196H19.9377V20.579Z" fill="#5B7288"/>
</svg>
