<svg width="13" height="25" viewBox="0 0 13 25" fill="none" xmlns="http://www.w3.org/2000/svg">
<path d="M11.136 5.8525V18.4726C11.136 20.8979 9.19078 22.8623 6.78916 22.8623C4.38753 22.8623 2.44232 20.8979 2.44232 18.4726V4.75509C2.44232 3.24068 3.65943 2.01158 5.15909 2.01158C6.65875 2.01158 7.87587 3.24068 7.87587 4.75509V16.2778C7.87587 16.8814 7.38685 17.3752 6.78916 17.3752C6.19147 17.3752 5.70245 16.8814 5.70245 16.2778V5.8525H4.07238V16.2778C4.07238 17.7922 5.2895 19.0213 6.78916 19.0213C8.28882 19.0213 9.50593 17.7922 9.50593 16.2778V4.75509C9.50593 2.32983 7.56072 0.365479 5.15909 0.365479C2.75747 0.365479 0.812256 2.32983 0.812256 4.75509V18.4726C0.812256 21.8087 3.48556 24.5084 6.78916 24.5084C10.0928 24.5084 12.7661 21.8087 12.7661 18.4726V5.8525H11.136Z" fill="#5B7288"/>
</svg>
